<svg width="59" height="59" viewBox="0 0 59 59" fill="none" xmlns="http://www.w3.org/2000/svg">
<g clip-path="url(#clip0_223_61)">
<path d="M29.5 59C45.7924 59 59 45.7924 59 29.5C59 13.2076 45.7924 0 29.5 0C13.2076 0 0 13.2076 0 29.5C0 45.7924 13.2076 59 29.5 59Z" fill="#ED3237"/>
<path fill-rule="evenodd" clip-rule="evenodd" d="M28.2316 22.1778C19.4873 23.8338 21.0984 38.4909 30.8549 36.7997C39.4903 35.3007 37.7767 20.3681 28.2316 22.1778ZM28.2508 24.9004C24.1798 26.1016 24.7627 35.8773 30.73 34.106C34.8042 32.8984 34.2661 23.1324 28.2508 24.9004Z" fill="#FFFDFE"/>
<path fill-rule="evenodd" clip-rule="evenodd" d="M40.3167 31.851H37.6902C37.9464 38.1963 46.2936 37.6838 48.5581 35.1309C50.2845 33.1835 49.7464 30.3584 47.9015 29.1989C46.5114 28.3277 44.3461 28.0618 42.8247 27.5622C41.7677 27.213 41.5979 27.1938 41.3513 26.7454C40.6946 25.1887 41.9791 24.484 43.4717 24.5033C45.3775 24.5289 45.7426 25.1118 46.1398 26.6461L49.0514 26.6429C49.2211 23.2893 46.0085 21.7807 42.5876 22.1266C39.6184 22.4213 36.8318 25.3104 38.6831 28.3437C40.1629 30.762 45.4832 30.3712 46.3672 32.0592C47.7702 34.737 41.8221 35.4833 40.8836 32.8344C40.5889 32.008 40.7971 32.0913 40.3167 31.851Z" fill="#FFFDFE"/>
<path fill-rule="evenodd" clip-rule="evenodd" d="M12.1427 31.851H9.39453C9.72444 39.2308 22.5206 38.2091 21.2137 31.4186C20.6276 28.3693 16.1882 28.1675 14.0742 27.3956C11.121 26.3162 14.0518 23.4559 16.7968 24.8396C17.6456 25.2656 17.4854 25.8357 17.9274 26.6269L20.8262 26.6365C20.8582 21.2618 12.9499 20.9895 10.6918 23.9395C9.80132 25.099 9.62515 27.1906 10.4579 28.3885C12.0915 30.7268 17.4278 30.5025 18.1613 32.0945C19.3528 34.6761 13.5425 35.5057 12.6456 32.9112C12.3605 32.0816 12.6809 32.2386 12.1427 31.851Z" fill="#FFFDFE"/>
<path fill-rule="evenodd" clip-rule="evenodd" d="M16.5309 48.02C18.7954 50.3069 25.4578 52.1743 29.3078 52.1743C33.3981 52.1743 36.2552 51.3319 39.644 49.724C40.5697 49.2852 41.758 48.4364 42.4819 48.2186C42.2129 47.4947 41.8445 47.0399 41.4377 46.6907C37.4211 48.904 35.1598 50.3838 29.4968 50.3806C26.172 50.3806 22.8857 49.5927 20.0094 48.1321C19.0869 47.6644 18.347 47.1039 17.5559 46.6971C17.1747 47.0463 16.7807 47.5075 16.5309 48.02Z" fill="#FFFDFE"/>
<path fill-rule="evenodd" clip-rule="evenodd" d="M16.5181 10.9896C16.7935 11.4893 17.1587 11.9441 17.5559 12.2901C19.5321 11.342 19.1638 10.948 22.7704 9.70201C27.0593 8.219 31.9343 8.219 36.22 9.69881C39.7017 10.9032 39.1796 11.1338 41.4377 12.2933C41.9086 11.9025 42.1488 11.5245 42.4787 10.9128C41.1815 9.87177 38.6062 8.67383 36.7837 8.04924C32.0144 6.41569 26.9728 6.41889 22.2067 8.04924C20.8069 8.5297 17.2131 10.1216 16.5181 10.9896Z" fill="#FFFDFE"/>
<path fill-rule="evenodd" clip-rule="evenodd" d="M19.1125 44.4134C22.6007 46.3512 24.8716 47.7029 29.6826 47.6933C32.3507 47.6869 35.5794 46.8413 37.8183 45.6529C38.5774 45.2526 39.2757 44.7305 39.8939 44.4262C39.6376 43.856 39.3045 43.4685 38.9778 42.9816C38.3884 43.1898 37.8023 43.6895 37.1457 44.0514C32.1393 46.8188 24.2855 46.3736 20.2144 42.9944C19.6891 43.3948 19.3976 43.792 19.1125 44.4134Z" fill="#FFFDFE"/>
<path fill-rule="evenodd" clip-rule="evenodd" d="M19.1062 14.561C19.3624 15.1472 19.718 15.6052 20.1888 15.9992C24.7916 12.1043 34.6409 12.2741 38.8017 16.0024C39.2854 15.6212 39.5993 15.1408 39.8939 14.5546C38.4333 13.7987 37.4692 13.0364 35.4898 12.3253C33.7345 11.6911 31.5596 11.2939 29.4969 11.2939C24.609 11.2939 22.3573 12.7897 19.1062 14.561Z" fill="#FFFDFE"/>
<path fill-rule="evenodd" clip-rule="evenodd" d="M21.723 40.6946C24.8972 43.8688 33.7889 44.0258 37.2866 40.6946C37.0207 40.1789 36.7132 39.7241 36.3225 39.2949C32.7831 41.9438 26.2297 42.152 22.6871 39.2981C22.3476 39.7145 21.9472 40.2334 21.723 40.6946Z" fill="#FFFDFE"/>
<path fill-rule="evenodd" clip-rule="evenodd" d="M21.707 18.3054L22.5751 19.6282C23.4463 19.34 24.4584 18.6065 25.6532 18.1869C31.108 16.2779 34.1893 18.8499 36.3994 19.6218L37.3251 18.3278C36.015 16.8736 31.8863 15.775 29.4968 15.775C27.1074 15.775 22.9594 16.8736 21.707 18.3054Z" fill="#FFFDFE"/>
</g>
<defs>
<clipPath id="clip0_223_61">
<rect width="59" height="59" fill="white"/>
</clipPath>
</defs>
</svg>
